<?xml version="1.0" encoding="UTF-8"?>
<svg xmlns="http://www.w3.org/2000/svg" id="Layer_1" data-name="Layer 1" viewBox="0 0 24 24">
  <path d="M10,6.5V23.5c0,.276-.224,.5-.5,.5s-.5-.224-.5-.5V6.5c0-.276,.224-.5,.5-.5s.5,.224,.5,.5Zm14,11.5c0,3.309-2.691,6-6,6s-6-2.691-6-6,2.691-6,6-6,6,2.691,6,6Zm-1,0c0-2.757-2.243-5-5-5s-5,2.243-5,5,2.243,5,5,5,5-2.243,5-5ZM1.5,14c-.276,0-.5,.224-.5,.5v9c0,.276,.224,.5,.5,.5s.5-.224,.5-.5V14.5c0-.276-.224-.5-.5-.5Zm4-4c-.276,0-.5,.224-.5,.5v13c0,.276,.224,.5,.5,.5s.5-.224,.5-.5V10.5c0-.276-.224-.5-.5-.5Zm11.622,6h1.77c.102,0,.608,.024,.608,.5,0,.276,.224,.5,.5,.5s.5-.224,.5-.5c0-.869-.677-1.5-1.608-1.5h-.392v-.5c0-.276-.224-.5-.5-.5s-.5,.224-.5,.5v.5h-.378c-.895,0-1.622,.728-1.622,1.622,0,.729,.491,1.372,1.22,1.57l2.286,.499c.291,.077,.494,.342,.494,.643,0,.367-.299,.666-.666,.666h-1.668c-.156,0-.666-.036-.666-.5,0-.276-.224-.5-.5-.5s-.5,.224-.5,.5c0,.883,.686,1.5,1.666,1.5h.334v.5c0,.276,.224,.5,.5,.5s.5-.224,.5-.5v-.5h.334c.919,0,1.666-.747,1.666-1.666,0-.752-.508-1.414-1.258-1.614l-2.284-.498c-.27-.074-.458-.32-.458-.6,0-.343,.279-.622,.622-.622ZM22.5,0h-5c-.276,0-.5,.224-.5,.5s.224,.5,.5,.5h4.793l-5.512,5.512c-.707,.706-1.855,.706-2.562,0l-2.73-2.73c-1.097-1.097-2.88-1.097-3.977,0L.146,11.146c-.195,.195-.195,.512,0,.707,.098,.098,.226,.146,.354,.146s.256-.049,.354-.146l7.365-7.365c.706-.706,1.856-.706,2.562,0l2.73,2.73c1.096,1.096,2.881,1.096,3.977,0L23,1.707V6.5c0,.276,.224,.5,.5,.5s.5-.224,.5-.5V1.5c0-.827-.673-1.5-1.5-1.5Z"/>
</svg>
